<?xml version="1.0" encoding="UTF-8" standalone="no"?><!DOCTYPE svg PUBLIC "-//W3C//DTD SVG 1.1//EN" "http://www.w3.org/Graphics/SVG/1.1/DTD/svg11.dtd"><svg width="100%" height="100%" viewBox="0 0 16 16" version="1.1" xmlns="http://www.w3.org/2000/svg" xmlns:xlink="http://www.w3.org/1999/xlink" xml:space="preserve" xmlns:serif="http://www.serif.com/" style="fill-rule:evenodd;clip-rule:evenodd;stroke-linejoin:round;stroke-miterlimit:2;"><g><path d="M3.907,3.907l-2.395,0c-0.829,0 -1.512,0.683 -1.512,1.512l0,9.07c0,0.829 0.683,1.512 1.512,1.512l9.07,0c0.829,0 1.512,-0.683 1.512,-1.512l0,-2.395l-0.756,0l0,2.395c0,0.415 -0.341,0.756 -0.756,0.756l-9.07,0c-0.415,0 -0.756,-0.341 -0.756,-0.756l0,-9.07c0,-0.415 0.341,-0.756 0.756,-0.756l2.395,0l0,-0.756Z"/><path d="M12.093,11.337l-0.756,0l0,-5.919c0,-0.415 -0.341,-0.756 -0.756,-0.756l-5.919,0l0,-0.756l5.919,0c0.829,0 1.512,0.683 1.512,1.512l0,5.919Z"/><path d="M12.093,12.093l2.395,0c0.829,0 1.512,-0.683 1.512,-1.512l0,-9.07c0,-0.829 -0.683,-1.512 -1.512,-1.512l-9.07,0c-0.829,0 -1.512,0.683 -1.512,1.512l0,2.395l0.756,0l0,-2.395c0,-0.415 0.341,-0.756 0.756,-0.756l9.07,0c0.415,0 0.756,0.341 0.756,0.756l0,9.07c0,0.415 -0.341,0.756 -0.756,0.756l-2.395,0l0,0.756Z"/><rect x="11.337" y="11.337" width="0.756" height="0.756"/><rect x="3.907" y="3.907" width="0.756" height="0.756"/></g></svg>